<svg width="17" height="16" viewBox="0 0 17 16" fill="none" xmlns="http://www.w3.org/2000/svg">
<path d="M16.1956 5.3198C16.468 3.16997 15.9529 1.11738 13.8407 0.341401C11.8256 -0.398956 9.62187 0.142111 7.78494 1.20788C7.03688 0.722651 6.09723 0.481 4.97081 0.593643C1.28539 0.971042 -0.949161 6.54635 0.39388 9.67626C0.526122 9.98443 0.700433 10.2728 0.911842 10.5331C1.0293 12.3874 1.85341 14.181 3.39478 15.2833C5.23557 16.5994 7.24098 15.9573 8.70437 14.5401C9.55835 14.5948 10.4127 14.4398 11.1931 14.0886C12.0596 14.5796 13.135 14.2166 13.9774 13.5109C15.4793 12.2593 16.495 10.0228 16.7164 8.10793C16.8396 7.04794 16.6683 6.09482 16.1956 5.3198ZM11.2643 13.3241C11.1161 13.173 10.9905 13.0011 10.8917 12.8139C11.3661 12.7102 11.8182 12.5231 12.2271 12.2613C11.9982 12.6891 11.6676 13.0542 11.2643 13.3241ZM8.51471 13.9345C7.6309 13.8305 6.75287 13.4782 6.10782 12.9034C6.65168 12.9831 7.20512 12.9697 7.7445 12.8639C8.13465 13.1288 8.59302 13.2752 9.06444 13.2856C8.89584 13.5145 8.7115 13.7313 8.51278 13.9345H8.51471ZM1.20933 7.81622C1.13328 6.69076 1.62139 5.57012 2.22119 4.65261C2.68743 3.91498 3.33954 3.31301 4.11203 2.90714C3.55715 3.64939 3.15826 4.4963 2.9394 5.39682C2.14224 5.95522 1.48468 7.16925 1.22377 7.93175C1.22089 7.8942 1.21222 7.85377 1.20933 7.81622ZM12.6468 11.1445C12.4372 11.3327 12.216 11.5077 11.9845 11.6682C11.9094 11.7192 11.8372 11.7558 11.763 11.7991C12.3603 11.0533 12.7735 10.1773 12.9694 9.24206C12.9307 9.7743 12.8495 10.3026 12.7268 10.8219C12.7085 10.9355 12.6738 11.0386 12.6468 11.1445ZM3.16757 9.53088C3.0875 9.18781 3.04712 8.83666 3.04723 8.48437C3.32212 9.23565 3.79801 9.89703 4.423 10.3964C4.24049 10.595 4.03 10.7659 3.79818 10.9038C3.49976 10.492 3.28548 10.0255 3.16757 9.53088ZM8.47235 2.6058C8.69695 2.90536 8.87844 3.23494 9.01149 3.58492L8.98357 3.59743C8.7154 3.23805 8.39999 2.91648 8.04585 2.64142C8.18352 2.62216 8.3289 2.61157 8.47235 2.6058ZM4.13995 6.00624C3.85113 7.19813 3.99843 8.38521 4.82062 9.14578C4.80859 9.31565 4.80859 9.48617 4.82062 9.65604C4.79559 9.72536 4.77152 9.79468 4.74938 9.86496C4.59141 9.74408 4.4439 9.6101 4.30844 9.46445C3.98072 9.10776 3.72711 8.68954 3.5623 8.23405C3.48742 7.44667 3.69191 6.65804 4.13995 6.00624ZM6.06546 6.48762C6.05014 6.26715 6.08811 6.04623 6.17618 5.84354C6.19187 6.00271 6.21662 6.16086 6.25031 6.31721C6.18773 6.37883 6.12611 6.43948 6.06739 6.49917C6.06708 6.49559 6.06643 6.49204 6.06546 6.48858V6.48762ZM6.7134 5.10222C7.05675 4.80461 7.44717 4.56613 7.8687 4.39652C7.55048 4.74654 7.29833 5.15134 7.12449 5.5913C6.99612 5.68436 6.87097 5.78064 6.74902 5.88012C6.70477 5.62332 6.6928 5.36199 6.7134 5.10222ZM10.783 9.38165C10.7781 9.35277 10.7704 9.32582 10.7656 9.29693C11.0157 9.15339 11.2511 8.98571 11.4684 8.7963C11.3353 9.28889 11.1124 9.75268 10.8109 10.1644C10.8254 9.90316 10.816 9.64117 10.783 9.38165ZM11.015 8.5017C11.0799 8.35079 11.1526 8.2033 11.2326 8.05979C11.3325 7.87029 11.4815 7.71104 11.6639 7.59864C11.6562 7.69491 11.6514 7.79119 11.6408 7.87976C11.459 8.11209 11.2491 8.321 11.0159 8.5017H11.015ZM10.6973 7.7469C10.5798 7.92231 10.4771 8.10715 10.3902 8.29952C10.3177 8.18568 10.2362 8.07783 10.1466 7.977C10.7242 7.11822 10.8648 6.10926 10.7117 5.11088C10.8187 5.16756 10.9197 5.23498 11.0131 5.3121C11.4636 5.68661 11.6379 6.30373 11.6725 6.94878C11.3288 7.06623 10.9871 7.32618 10.6982 7.7469H10.6973ZM5.86136 9.16985C5.86136 9.11497 5.86136 9.06202 5.86136 9.00714C5.86136 8.99366 5.8681 8.97922 5.87195 8.96574C5.89891 8.93012 5.92682 8.89546 5.95474 8.86081C6.04332 8.91568 6.13478 8.96863 6.22913 9.01677C6.21469 9.09572 6.20217 9.1737 6.19254 9.25361C6.08005 9.23476 5.96929 9.20675 5.86136 9.16985ZM8.78909 4.45236C8.82183 4.50724 8.85263 4.56404 8.88537 4.6218C8.69282 4.69401 8.50027 4.77681 8.30771 4.87019C8.45091 4.71163 8.61251 4.57071 8.78909 4.45043V4.45236ZM10.1369 6.45681C10.1254 6.34802 10.1052 6.24115 10.085 6.13333C10.1158 5.77454 10.0832 5.41312 9.98868 5.06563C10.0233 5.04541 10.058 5.02808 10.0927 5.00883C10.1858 5.48528 10.2001 5.9738 10.135 6.45489L10.1369 6.45681ZM8.76887 8.2225C8.61658 8.39835 8.41106 8.5197 8.18352 8.56813C7.90729 8.35465 7.6668 8.09856 7.47108 7.80948C7.46049 7.79408 7.4499 7.77386 7.43835 7.75749C7.60918 7.69081 7.78721 7.64428 7.96882 7.61885C8.31009 7.56721 8.65901 7.61605 8.97298 7.75942C8.90847 7.91442 8.84301 8.07038 8.76887 8.2225ZM9.35326 5.81562C9.33213 6.30858 9.25526 6.79756 9.12413 7.27323C8.68969 7.10483 8.22128 7.04277 7.75798 7.09223C8.18158 6.49927 8.69437 5.97543 9.27817 5.53931C9.30609 5.62981 9.3292 5.7203 9.35326 5.81177V5.81562ZM8.79679 5.15806C8.60424 5.30247 8.42806 5.44688 8.26054 5.599C8.0095 5.82347 7.77465 6.0654 7.55773 6.32299C7.6132 6.12203 7.68335 5.92543 7.76761 5.73475C8.0878 5.50322 8.43303 5.30848 8.79679 5.15421V5.15806ZM6.85107 9.26901L6.88765 9.2796H6.85011C6.85082 9.27612 6.85115 9.27257 6.85107 9.26901ZM6.64311 7.434C6.58631 7.46481 6.53143 7.49947 6.47559 7.53028C6.40035 7.41717 6.3328 7.29913 6.27342 7.17695C6.32444 7.10667 6.37932 7.0335 6.43997 6.95937C6.49774 7.124 6.56513 7.27996 6.64311 7.434ZM5.07671 8.03187C5.03243 8.14837 4.99488 8.26582 4.96022 8.38424C4.79879 8.04747 4.70834 7.68109 4.6945 7.30788C4.79003 7.56474 4.91851 7.80811 5.07671 8.03187ZM5.81226 9.73595L5.85173 9.75135C5.95558 9.78247 6.0614 9.80659 6.16848 9.82356C6.16848 9.9362 6.17618 10.0488 6.18773 10.1624C6.02811 10.1825 5.86704 10.1886 5.70635 10.1807C5.75203 10.0351 5.78742 9.88651 5.81226 9.73595ZM6.82315 9.88421C6.9098 9.88421 6.99644 9.87266 7.08405 9.86303C7.08405 9.87555 7.09176 9.88903 7.09657 9.90154C7.00896 9.94101 6.92135 9.97856 6.83181 10.0094C6.82893 9.96797 6.82411 9.92561 6.82315 9.88421ZM9.67194 8.54791C9.696 8.52384 9.72392 8.5017 9.74703 8.47763C9.8466 8.64145 9.92918 8.815 9.9935 8.99559C9.73635 9.05231 9.47082 9.06014 9.21078 9.0187C9.38941 8.88827 9.54523 8.7292 9.67194 8.54791ZM9.92899 4.35705L9.79421 4.37726C9.7865 4.33683 9.77784 4.29639 9.76917 4.25692C9.81635 4.26943 9.86545 4.2858 9.90974 4.29928C9.91648 4.31854 9.92321 4.33779 9.92899 4.35705ZM8.63409 9.53088C9.0637 9.69872 9.53518 9.72735 9.98194 9.61272C9.88425 10.1223 9.84453 10.6413 9.86352 11.1599C9.61482 11.3622 9.35017 11.5441 9.07214 11.7038C8.59304 11.3147 8.20992 10.8206 7.95246 10.2597C8.20192 10.0386 8.43012 9.79456 8.63409 9.53088ZM7.1553 2.8667C7.489 3.0412 7.79417 3.26553 8.06029 3.53197C7.28238 3.44917 6.56898 3.80057 6.28882 4.64683C5.96186 4.98353 5.70555 5.38223 5.53498 5.81947C5.52439 5.84835 5.52151 5.87723 5.51188 5.90612C5.42229 5.73592 5.31995 5.57274 5.20572 5.418C5.19898 5.40933 5.19224 5.40452 5.18647 5.39586C5.20074 5.24068 5.22356 5.0864 5.25482 4.93373C5.32759 4.60483 5.44791 4.28828 5.612 3.99409C6.00943 3.47987 6.54458 3.08894 7.1553 2.8667ZM3.97821 5.79636C3.64412 6.22985 3.42639 6.74155 3.34568 7.28285C3.31933 7.05441 3.31032 6.82429 3.31873 6.59448C3.45447 6.24212 3.6528 5.93307 3.89638 5.77326C3.92141 5.77614 3.9474 5.78673 3.97629 5.79636H3.97821ZM7.41332 10.6669C7.65131 11.1782 7.98348 11.64 8.39244 12.0283C8.22877 12.0922 8.06163 12.1468 7.89181 12.1919C7.47736 11.8451 7.16656 11.3907 6.99356 10.8787C7.13901 10.8197 7.2794 10.7489 7.41332 10.6669ZM10.576 11.8415C11.4203 11.0241 12.1221 9.7552 12.487 8.43334C12.308 9.80045 11.5435 11.1599 10.6029 12.009C10.5904 11.9503 10.5837 11.8944 10.576 11.8415ZM9.51693 3.43184C9.50827 3.40873 9.50057 3.38563 9.4919 3.36348C9.50345 3.38563 9.51693 3.40585 9.52945 3.42895C9.52561 3.42849 9.52173 3.42849 9.5179 3.42895L9.51693 3.43184ZM7.78301 2.02141C7.70407 2.03392 7.62512 2.05125 7.54714 2.07051C7.62705 2.01948 7.70696 1.97423 7.78783 1.9232C7.82345 1.9492 7.85522 1.98097 7.8841 2.00889L7.78301 2.02141ZM2.75744 6.43756C2.74878 6.52324 2.74685 6.61085 2.74396 6.6975C2.63533 7.02477 2.55481 7.3607 2.50327 7.70165C2.36463 8.75596 2.54047 9.82772 3.00872 10.7825C2.29724 10.4936 1.79854 9.81971 1.50875 9.0832C1.6368 7.95485 2.02767 6.80436 2.7921 6.17087C2.77766 6.25752 2.7661 6.3538 2.75744 6.43756ZM6.38702 11.0376C6.41109 11.105 6.43131 11.1733 6.45827 11.2407C6.5532 11.4675 6.66891 11.6851 6.80389 11.8906C6.45275 11.6871 6.16125 11.395 5.9586 11.0434C6.10121 11.0564 6.24481 11.0545 6.38702 11.0376ZM12.0846 4.29254L12.1221 4.28773C12.1635 4.35608 12.2011 4.42636 12.2367 4.49761C12.1915 4.42829 12.1356 4.35993 12.0846 4.29254ZM11.5002 3.73222C11.0957 3.482 10.628 3.35273 10.1524 3.35963C10.0408 3.13961 9.91204 2.92875 9.76725 2.72903C10.4619 2.8827 11.1046 3.21449 11.6321 3.69178L11.5002 3.73222ZM6.68644 1.93283C6.60749 1.90973 6.52566 1.89432 6.44479 1.87699C6.59479 1.82421 6.75005 1.78773 6.90787 1.7682C6.83566 1.82115 6.76442 1.87699 6.69029 1.93283H6.68644ZM5.96919 2.5307C5.41132 3.07673 4.98954 3.74618 4.73782 4.48509C4.66947 4.60736 4.60496 4.73059 4.54527 4.85671C4.19579 4.7123 3.88001 4.83168 3.60659 5.10029C3.94384 4.10047 4.5485 3.21212 5.35495 2.53167C5.55921 2.51215 5.76486 2.51183 5.96919 2.5307ZM1.49431 10.3242L1.45772 10.2809V10.2703C1.47024 10.2886 1.48179 10.3069 1.49431 10.3242ZM4.59052 11.415C4.604 11.5161 4.61941 11.6162 4.64251 11.7144C4.54624 11.6461 4.44418 11.5758 4.35369 11.4978C4.43424 11.475 4.51333 11.4474 4.59052 11.415ZM5.23075 11.57C5.18382 11.4086 5.15634 11.2421 5.14892 11.0742C5.17395 11.0511 5.19706 11.027 5.22016 11.002C5.30542 11.1511 5.40402 11.2923 5.51477 11.4237C5.82388 11.7838 6.18854 12.0922 6.59498 12.3373C6.21526 12.3246 5.8394 12.2568 5.47914 12.1361C5.37501 11.9575 5.29167 11.7676 5.23075 11.57ZM13.5355 8.41601C13.4926 8.01386 13.3319 7.63334 13.0733 7.32233C13.0477 7.087 13.0055 6.85376 12.9472 6.62433C13.062 6.22689 13.0957 5.81039 13.046 5.39969C12.9964 4.98898 12.8646 4.59247 12.6584 4.23381C13.1413 4.20647 13.6254 4.26116 14.09 4.39556C14.658 4.54749 15.1611 4.87999 15.5236 5.34291C15.3461 7.12618 14.6559 8.81988 13.5364 10.2193C13.6113 9.62049 13.611 9.0147 13.5355 8.41601ZM14.2575 1.29164C15.3166 1.98482 15.5669 3.37889 15.5688 4.565C15.1858 4.22248 14.7425 3.95413 14.2614 3.77362C13.6005 3.52934 12.887 3.46294 12.1924 3.58107C11.4569 2.73673 10.3208 2.14656 9.09813 2.00023C8.89701 1.82976 8.67665 1.68339 8.44154 1.5641C8.87565 1.35056 9.32184 1.16251 9.77784 1.00089C11.1921 0.49833 12.9655 0.441527 14.2575 1.28682V1.29164ZM6.42168 1.28009C6.45538 1.28779 6.48522 1.30127 6.51796 1.30993C6.28692 1.35741 6.06117 1.42771 5.84403 1.51981C5.66042 1.59947 5.48336 1.69347 5.31451 1.80094C3.01835 2.03007 1.26614 4.42829 0.724105 6.48858C0.792556 6.1149 0.881586 5.74528 0.990788 5.38142C1.69649 3.02363 3.72597 0.617711 6.42168 1.28009ZM0.604723 7.64485C0.625077 8.20912 0.738945 8.7661 0.941687 9.29308C0.941687 9.33255 0.933022 9.37107 0.930134 9.41054C0.873355 9.28272 0.824483 9.15154 0.783796 9.01773C0.654746 8.57185 0.594362 8.10891 0.604723 7.64485ZM4.64829 15.2727C2.81039 14.826 1.88422 12.8745 1.55592 11.1964C1.55111 11.1762 1.54918 11.1531 1.54533 11.1329C2.12299 11.5507 2.8258 11.7423 3.53053 11.5825C3.8936 12.0241 4.36027 12.3691 4.88898 12.5867C4.94963 12.6107 5.00932 12.6223 5.06901 12.6444C5.08056 12.6608 5.08923 12.6781 5.10175 12.6945C5.81163 13.5975 6.82103 14.217 7.94765 14.4409C6.99933 15.1726 5.8421 15.5616 4.64636 15.2727H4.64829ZM9.23773 13.9644C9.44196 13.7176 9.62978 13.4578 9.79998 13.1865C9.87123 13.1662 9.94151 13.1451 10.0128 13.1181C10.1032 13.0834 10.186 13.0343 10.2727 12.9929C10.3303 13.1293 10.3972 13.2615 10.4729 13.3886C10.5318 13.4782 10.5961 13.564 10.6655 13.6457C10.503 13.7147 10.3364 13.7739 10.1668 13.8228C9.8633 13.9074 9.55071 13.9549 9.23581 13.9644H9.23773ZM15.0489 11.0877C14.5444 12.0417 13.8426 12.9679 12.8981 13.5167C12.5255 13.7333 12.1857 13.7708 11.8863 13.6938C12.565 13.1884 13.0223 12.3537 13.29 11.4381C13.4991 11.2421 13.6977 11.0352 13.8849 10.8181C14.7379 9.82837 15.5909 8.13008 16.003 6.37016C16.3602 7.87687 15.7103 9.8303 15.047 11.0877H15.0489Z" fill="#E40000"/>
</svg>
